<svg width="692" height="692" viewBox="0 0 692 692" fill="none" xmlns="http://www.w3.org/2000/svg">
<rect x="0.6185" y="0.5" width="690.381" height="690.381" rx="1.5" stroke="white" stroke-opacity="0.1"/>
<circle cx="346.5" cy="344.5" r="13.5" fill="#6859C1"/>
<path d="M388 344.5C388 367.972 368.972 387 345.5 387C322.028 387 303 367.972 303 344.5C303 321.028 322.028 302 345.5 302C368.972 302 388 321.028 388 344.5ZM316.085 344.5C316.085 360.745 329.255 373.915 345.5 373.915C361.745 373.915 374.915 360.745 374.915 344.5C374.915 328.255 361.745 315.085 345.5 315.085C329.255 315.085 316.085 328.255 316.085 344.5Z" fill="#6859C1"/>
<path d="M457 344.5C457 406.08 407.08 456 345.5 456C283.92 456 234 406.08 234 344.5C234 282.92 283.92 233 345.5 233C407.08 233 457 282.92 457 344.5ZM245.268 344.5C245.268 399.857 290.143 444.732 345.5 444.732C400.857 444.732 445.732 399.857 445.732 344.5C445.732 289.143 400.857 244.268 345.5 244.268C290.143 244.268 245.268 289.143 245.268 344.5Z" fill="#6859C1"/>
<path d="M495 199C553.579 257.579 503.079 383.921 444.5 442.5C385.921 501.079 253.697 549.46 195.119 490.882C136.54 432.303 190.421 305.579 249 247C307.579 188.421 436.421 140.421 495 199ZM207 479C259.017 531.017 380.602 482.635 432.619 430.618C484.635 378.602 535.135 262.898 483.119 210.882C431.102 158.865 312.898 206.865 260.882 258.881C208.865 310.898 154.983 426.983 207 479Z" fill="#7F98FB"/>
<path fill-rule="evenodd" clip-rule="evenodd" d="M375.094 498.024C367.009 501.375 358.71 504.401 350.302 507.047C402.942 526.192 458.881 528.501 492.5 494.881C525.079 462.302 524.692 407.989 507.853 356.118C504.886 364.398 501.539 372.55 497.874 380.471C507.382 420.091 504.876 458.743 480.618 483C455.509 508.11 415.558 509.331 375.094 498.024ZM195.913 312.981C192.2 320.611 188.775 328.444 185.698 336.39C168.549 283.394 167.905 227.713 200.618 195C234.076 161.543 289.763 164.772 342.287 184.608C334.378 187.299 326.569 190.342 318.947 193.684C278.139 181.334 237.763 181.618 212.5 206.881C187.832 231.549 185.743 271.862 195.913 312.981ZM492.749 318.77C490.206 325.695 487.282 332.614 484.05 339.455C470.754 308.609 451.964 280.109 432.619 260.763C413.092 241.237 384.538 221.448 353.733 207.096C360.649 204.089 367.64 201.391 374.632 199.07C401.751 213.099 426.384 230.766 444.5 248.881C462.514 266.895 479.527 291.554 492.749 318.77ZM335.214 483.066C328.197 486.045 321.111 488.709 314.033 490.989C288.842 477.798 266.051 461.432 249 444.381C230.137 425.519 212.332 399.02 198.814 369.802C201.463 362.868 204.485 355.941 207.805 349.095C221.236 381.931 240.788 412.406 260.882 432.5C279.466 451.084 306.18 469.475 335.214 483.066Z" fill="#7F98FB"/>
<ellipse cx="461.95" cy="460.95" rx="29" ry="14" transform="rotate(135 461.95 460.95)" fill="#6E59AC"/>
<ellipse cx="461.95" cy="228.406" rx="29" ry="14" transform="rotate(45 461.95 228.406)" fill="#6E59AC"/>
<ellipse cx="229.406" cy="228.406" rx="29" ry="14" transform="rotate(-45 229.406 228.406)" fill="#6E59AC"/>
<ellipse cx="229.406" cy="460.95" rx="29" ry="14" transform="rotate(-135 229.406 460.95)" fill="#6E59AC"/>
</svg>
