<svg width="492" height="492" viewBox="0 0 492 492" fill="none" xmlns="http://www.w3.org/2000/svg">
<g clip-path="url(#clip0_5_36)">
<circle cx="246.382" cy="244.5" r="13.5" fill="#6859C1"/>
<path d="M287.882 244.5C287.882 267.972 268.854 287 245.382 287C221.909 287 202.882 267.972 202.882 244.5C202.882 221.028 221.909 202 245.382 202C268.854 202 287.882 221.028 287.882 244.5ZM215.967 244.5C215.967 260.745 229.136 273.915 245.382 273.915C261.627 273.915 274.796 260.745 274.796 244.5C274.796 228.255 261.627 215.085 245.382 215.085C229.136 215.085 215.967 228.255 215.967 244.5Z" fill="#6859C1"/>
<path d="M356.882 244.5C356.882 306.08 306.961 356 245.382 356C183.802 356 133.882 306.08 133.882 244.5C133.882 182.92 183.802 133 245.382 133C306.961 133 356.882 182.92 356.882 244.5ZM145.149 244.5C145.149 299.857 190.025 344.732 245.382 344.732C300.738 344.732 345.614 299.857 345.614 244.5C345.614 189.143 300.738 144.268 245.382 144.268C190.025 144.268 145.149 189.143 145.149 244.5Z" fill="#6859C1"/>
<path d="M394.882 99C453.46 157.579 402.96 283.921 344.382 342.5C285.803 401.079 153.579 449.46 95 390.882C36.4214 332.303 90.3029 205.579 148.882 147C207.46 88.4214 336.303 40.4214 394.882 99ZM106.882 379C158.898 431.017 280.483 382.635 332.5 330.618C384.517 278.602 435.017 162.898 383 110.882C330.983 58.8648 212.78 106.865 160.763 158.881C108.746 210.898 54.8648 326.983 106.882 379Z" fill="#7F98FB"/>
<path fill-rule="evenodd" clip-rule="evenodd" d="M274.976 398.024C266.89 401.375 258.592 404.401 250.184 407.047C302.823 426.192 358.762 428.501 392.381 394.881C424.961 362.302 424.573 307.989 407.735 256.118C404.767 264.398 401.421 272.55 397.756 280.471C407.264 320.091 404.757 358.743 380.5 383C355.39 408.11 315.439 409.331 274.976 398.024ZM95.7944 212.981C92.0816 220.611 88.6562 228.444 85.5796 236.39C68.4308 183.394 67.7868 127.713 100.5 95C133.957 61.5426 189.645 64.7715 242.169 84.6084C234.26 87.2993 226.45 90.3416 218.829 93.6842C178.02 81.3344 137.645 81.6183 112.381 106.881C87.714 131.549 85.6248 171.862 95.7944 212.981ZM392.63 218.77C390.087 225.695 387.163 232.614 383.932 239.455C370.636 208.609 351.846 180.109 332.5 160.763C312.974 141.237 284.419 121.448 253.615 107.096C260.53 104.089 267.521 101.391 274.514 99.0695C301.633 113.099 326.266 130.766 344.382 148.881C362.395 166.895 379.409 191.554 392.63 218.77ZM235.095 383.066C228.078 386.045 220.992 388.709 213.915 390.989C188.724 377.798 165.932 361.432 148.881 344.381C130.019 325.519 112.213 299.02 98.6958 269.802C101.344 262.868 104.366 255.941 107.687 249.095C121.118 281.931 140.669 312.406 160.763 332.5C179.347 351.084 206.061 369.475 235.095 383.066Z" fill="#7F98FB"/>
<ellipse cx="361.831" cy="360.95" rx="29" ry="14" transform="rotate(135 361.831 360.95)" fill="#6E59AC"/>
<ellipse cx="361.831" cy="128.406" rx="29" ry="14" transform="rotate(45 361.831 128.406)" fill="#6E59AC"/>
<ellipse cx="129.287" cy="128.406" rx="29" ry="14" transform="rotate(-45 129.287 128.406)" fill="#6E59AC"/>
<ellipse cx="129.287" cy="360.95" rx="29" ry="14" transform="rotate(-135 129.287 360.95)" fill="#6E59AC"/>
</g>
<defs>
<clipPath id="clip0_5_36">
<rect width="491.382" height="491.382" rx="2" fill="white"/>
</clipPath>
</defs>
</svg>
